<?xml version="1.0"?>
<svg xmlns="http://www.w3.org/2000/svg" viewBox="0 0 50 50" enable-background="new 0 0 50 50">
    <path style="text-indent:0;text-align:start;line-height:normal;text-transform:none;block-progression:tb;-inkscape-font-specification:Bitstream Vera Sans" d="M 27.84375 11 A 1.0001 1.0001 0 0 0 27 12 L 27 20 L 5 20 A 1.0001 1.0001 0 0 0 4 21 L 4 29 A 1.0001 1.0001 0 0 0 5 30 L 27 30 L 27 38 A 1.0001 1.0001 0 0 0 28.59375 38.78125 L 45.59375 25.78125 A 1.0001 1.0001 0 0 0 45.59375 24.21875 L 28.59375 11.21875 A 1.0001 1.0001 0 0 0 27.84375 11 z M 29 14 L 43.375 25 L 29 36 L 29 29 A 1.0001 1.0001 0 0 0 28 28 L 6 28 L 6 22 L 28 22 A 1.0001 1.0001 0 0 0 29 21 L 29 14 z" overflow="visible" enable-background="accumulate" font-family="Bitstream Vera Sans"/>
</svg>
